<?xml version="1.0" encoding="UTF-8"?>
<svg width="85px" height="95px" viewBox="0 0 85 95" version="1.1" xmlns="http://www.w3.org/2000/svg" xmlns:xlink="http://www.w3.org/1999/xlink">
    <title>Rectangle</title>
    <defs>
        <path d="M34.754086,-1.98951966e-13 C35.5229249,-1.98951966e-13 36.4352687,0.335064107 36.938034,1.02618469 L37.0232025,1.15197881 L58.0314136,34.5477179 L81.5023149,18.2460107 C82.9375912,17.2490835 84.8910734,18.21766 84.9956186,19.9209728 L85,20.06459 L85,68.9271027 C85,69.5819561 84.7096312,70.2003003 84.2119599,70.6196548 L84.0832714,70.7202538 L51.1513342,94.5722924 C49.7202937,95.6087706 47.7288682,94.6458282 47.6222689,92.9243289 L47.617801,92.7791413 L47.617801,56.0960545 L30.3116654,68.8700183 C29.3040609,69.6136686 27.8901945,69.3775475 27.1752012,68.3755653 L27.0895469,68.2463442 L23.3167016,62.1091932 L3.55697105,76.8198257 C2.12819441,77.8834097 0.109546956,76.922292 0.00429181041,75.1863132 L0,75.0438849 L0,25.2034955 C0,24.5436888 0.294752673,23.9212478 0.79879134,23.5019393 L0.929111672,23.40144 L32.9709965,0.527278109 C33.5151415,0.138822174 33.9852472,-1.98951966e-13 34.754086,-1.98951966e-13 Z M80.5497382,24.3112971 L52.0680628,44.0940889 L52.0680628,88.4251358 L80.5497382,67.7963723 L80.5497382,24.3112971 Z M4.45026178,31.4130114 L4.45026178,70.6198251 L20.9829843,58.311188 L4.45026178,31.4130114 Z M34.5046597,5.49685035 L6.09774869,25.601537 L29.614712,63.8662395 L47.617801,50.5777294 L47.617801,42.9387519 C47.617801,42.269614 47.9208991,41.6394925 48.4369741,41.2204391 L48.5703777,41.1201726 L54.3768586,37.0865199 L34.5046597,5.49685035 Z" id="path-1"></path>
    </defs>
    <g id="Page-1" stroke="none" stroke-width="1" fill="none" fill-rule="evenodd">
        <g id="Artboard" transform="translate(-472.000000, -252.000000)">
            <g id="Rectangle" transform="translate(472.000000, 252.000000)">
                <mask id="mask-2" fill="white">
                    <use xlink:href="#path-1"></use>
                </mask>
                <use id="Mask" fill="#FFFFFF" fill-rule="nonzero" xlink:href="#path-1"></use>
            </g>
        </g>
    </g>
</svg>