<svg height="95" viewBox="0 0 260 95" width="260" xmlns="http://www.w3.org/2000/svg" xmlns:xlink="http://www.w3.org/1999/xlink"><defs><path id="a" d="m34.754086 0c.7688389 0 1.6811827.33506411 2.183948 1.02618469l.0851685.12579412 21.0082111 33.39573909 23.4709013-16.3017072c1.4352763-.9969272 3.3887585-.0283507 3.4933037 1.6749621l.0043814.1436172v48.8625127c0 .6548534-.2903688 1.2731976-.7880401 1.6925521l-.1286885.100599-32.9319372 23.8520386c-1.4310405 1.0364782-3.422466.0735358-3.5290653-1.6479635l-.0044679-.1451876v-36.6830868l-17.3061356 12.7739638c-1.0076045.7436503-2.4214709.5075292-3.1364642-.494453l-.0856543-.1292211-3.7728453-6.137151-19.75973055 14.7106325c-1.42877664 1.063584-3.44742409.1024663-3.55267924-1.6335125l-.00429181-.1424283v-49.8403894c0-.6598067.29475267-1.2822477.79879134-1.7015562l.13032033-.1004993 32.04188483-22.87416189c.544145-.38845594 1.0142507-.52727811 1.7830895-.52727811zm45.7956522 24.3112971-28.4816754 19.7827918v44.3310469l28.4816754-20.6287635zm-76.09947642 7.1017143v39.2068137l16.53272252-12.3086371zm30.05439792-25.91616105-28.40691101 20.10468665 23.51696331 38.2647025 18.003089-13.2885101v-7.6389775c0-.6691379.3030981-1.2992594.8191731-1.7183128l.1334036-.1002665 5.8064809-4.0336527z"/><linearGradient id="b" x1="9.972299%" x2="90.027701%" y1="0%" y2="100%"><stop offset="0" stop-color="#6c19cf"/><stop offset="1" stop-color="#d93e62"/></linearGradient><mask id="c" fill="#fff"><use fill="#fff" fill-rule="evenodd" xlink:href="#a"/></mask></defs><g fill="none" fill-rule="evenodd"><use fill="#565656" fill-rule="nonzero" xlink:href="#a"/><path d="m0 0h85v95h-85z" fill="url(#b)" mask="url(#c)"/><path d="m122.856 59v-14.768l7.056 14.768h1.536l7.072-14.768v14.768h3.6v-23.04h-3.472l-7.968 16.32-7.968-16.32h-3.472v23.04zm37.062857 0v-23.04h-3.856v23.04zm17.798857 0v-8.048h5.474286l3.901714 8.048h4.368l-4.256714-8.731.156616-.0678395c.87144-.4001646 1.586502-.959177 2.145185-1.677037l.162913-.2201235c.949334-1.3493333 1.424-2.9626667 1.424-4.84 0-1.2693333-.210666-2.424-.632-3.464-.421333-1.04-1.066666-1.9013333-1.936-2.584-.869333-.6826667-1.970666-1.1253333-3.304-1.328-.298666-.0533333-.624-.088-.976-.104s-.64-.024-.864-.024h-9.52v23.04zm5.504-11.648h-5.504v-7.776h5.504c.213334 0 .453334.008.72.024.266667.016.512.056.736.12.64.16 1.144.4426667 1.512.848s.629334.8666667.784 1.384c.154667.5173333.232 1.0213333.232 1.512s-.077333.992-.232 1.504c-.154666.512-.416.9706667-.784 1.376s-.872.688-1.512.848c-.224.064-.469333.1066667-.736.128-.266666.0213333-.506666.032-.72.032zm30.182857 12.128c1.834667 0 3.448-.3733333 4.84-1.12s2.48-1.7973333 3.264-3.152 1.176-2.944 1.176-4.768v-14.48h-3.904v14.384c0 .8533333-.144 1.6213333-.432 2.304s-.682666 1.2613333-1.184 1.736c-.501333.4746667-1.074666.8373333-1.72 1.088-.645333.2506667-1.325333.376-2.04.376-.693333 0-1.365333-.1226667-2.016-.368-.650666-.2453333-1.226666-.6053333-1.728-1.08-.501333-.4746667-.898666-1.0533333-1.192-1.736-.293333-.6826667-.44-1.456-.44-2.32v-14.384l-3.904.032v14.448c0 1.824.392 3.4133333 1.176 4.768s1.872 2.4053333 3.264 3.152 3.005334 1.12 4.84 1.12zm26.518858-.48v-14.768l7.056 14.768h1.536l7.072-14.768v14.768h3.6v-23.04h-3.472l-7.968 16.32-7.968-16.32h-3.472v23.04z" fill="#1d1d1d" fill-rule="nonzero"/></g></svg>