<svg width="85px" height="95px" viewBox="0 0 85 95" xmlns="http://www.w3.org/2000/svg" xmlns:xlink="http://www.w3.org/1999/xlink"><defs><linearGradient x1="9.97229917%" y1="0%" x2="90.0277008%" y2="100%" id="b"><stop stop-color="#6C19CF" offset="0%"/><stop stop-color="#D93E62" offset="100%"/></linearGradient><path d="M34.75 0c.77 0 1.69.34 2.19 1.03l.08.12 21.01 33.4 23.47-16.3c1.44-1 3.4-.03 3.5 1.67v49.01c0 .65-.29 1.27-.79 1.69l-.13.1-32.93 23.85a2.23 2.23 0 01-3.53-1.65V56.1l-17.3 12.77c-1.02.74-2.43.5-3.14-.5l-.09-.12-3.77-6.14L3.56 76.82A2.23 2.23 0 010 75.19V25.2c0-.66.3-1.28.8-1.7l.13-.1L32.97.53A2.72 2.72 0 0134.75 0zm45.8 24.31L52.07 44.1v44.34L80.55 67.8V24.3zm-76.1 7.1v39.21l16.53-12.3-16.53-26.9zM34.5 5.5L6.1 25.6 29.6 63.87l18-13.3v-7.63c0-.67.31-1.3.83-1.72l.13-.1 5.8-4.03L34.5 5.49z" id="a"/></defs><g fill="none" fill-rule="evenodd"><mask id="c" fill="#fff"><use xlink:href="#a"/></mask><use fill="#565656" fill-rule="nonzero" xlink:href="#a"/><rect fill="url(#b)" mask="url(#c)" width="85" height="95"/></g></svg>