<?xml version="1.0" encoding="UTF-8"?>
<svg width="320px" height="160px" viewBox="0 0 320 160" version="1.1" xmlns="http://www.w3.org/2000/svg" xmlns:xlink="http://www.w3.org/1999/xlink">
    <title>smg</title>
    <g id="Page-1" stroke="none" stroke-width="1" fill="none" fill-rule="evenodd">
        <g id="Artboard" fill="#B2C0D6" fill-rule="nonzero">
            <g id="smg">
                <path d="M224.090226,159.669794 C222.285714,159.309568 220.661654,158.198874 219.969925,156.787992 C219.488722,155.797373 219.398496,154.836773 219.308271,149.883677 L219.218045,144.090056 L220.421053,144.090056 L221.654135,144.090056 L221.654135,149.133208 C221.654135,153.365854 221.744361,154.326454 222.225564,155.377111 C223.548872,158.258912 228.120301,158.318949 229.533835,155.497186 C229.984962,154.626642 230.075188,153.606004 230.075188,149.283302 L230.075188,144.090056 L231.308271,144.090056 L232.541353,144.090056 L232.421053,150.033771 L232.330827,156.007505 L231.488722,157.268293 C230.135338,159.27955 227.097744,160.270169 224.090226,159.669794 Z" id="Path"></path>
                <path d="M242.075188,159.699812 C235.789474,158.649156 233.323308,150.724203 237.864662,146.19137 C239.669173,144.390244 241.654135,143.669794 244.481203,143.849906 C246.646617,143.969981 249.112782,144.9606 249.744361,145.981238 C250.015038,146.43152 249.924812,146.641651 249.172932,147.242026 C248.300752,147.962477 248.270677,147.962477 247.669173,147.422139 C246.616541,146.461538 245.714286,146.161351 244.06015,146.161351 C242.075188,146.161351 240.330827,146.971857 239.18797,148.502814 C238.43609,149.463415 238.345865,149.853659 238.345865,151.744841 C238.345865,154.476548 239.12782,155.767355 241.443609,156.908068 C243.458647,157.898687 245.413534,157.778612 247.24812,156.577861 L248.511278,155.737336 L249.263158,156.517824 C250.015038,157.268293 250.015038,157.298311 249.503759,157.868668 C248.150376,159.339587 244.842105,160.150094 242.075188,159.699812 Z" id="Path"></path>
                <path d="M293.142857,159.699812 C288.932331,158.979362 286.37594,155.64728 286.676692,151.234522 C286.827068,148.833021 287.338346,147.63227 288.75188,146.221388 C290.526316,144.450281 291.879699,143.939962 294.887218,143.939962 C297.804511,143.939962 299.398496,144.4803 301.112782,146.101313 C303.067669,147.932458 303.849624,152.345216 302.706767,155.076923 C301.323308,158.409006 297.233083,160.390244 293.142857,159.699812 Z M297.082707,157.148218 C299.518797,156.12758 300.902256,153.93621 300.691729,151.414634 C300.150376,145.140713 291.428571,144.090056 289.383459,150.06379 C287.789474,154.626642 292.571429,159.009381 297.082707,157.148218 Z" id="Shape"></path>
                <polygon id="Path" points="186.165414 151.894934 186.165414 144.090056 191.729323 144.090056 197.293233 144.090056 197.293233 145.140713 197.293233 146.19137 192.932331 146.19137 188.571429 146.19137 188.571429 148.442777 188.571429 150.694184 192.481203 150.694184 196.390977 150.694184 196.390977 151.744841 196.390977 152.795497 192.481203 152.795497 188.571429 152.795497 188.571429 155.196998 188.571429 157.598499 193.082707 157.598499 197.593985 157.598499 197.593985 158.649156 197.593985 159.699812 191.879699 159.699812 186.165414 159.699812"></polygon>
                <path d="M200.902256,151.924953 L200.902256,144.090056 L205.654135,144.090056 C210.827068,144.090056 212.120301,144.420263 213.924812,146.131332 C215.518797,147.63227 216.090226,149.103189 216.090226,151.744841 C216.090226,154.446529 215.639098,155.677298 214.045113,157.298311 C212.240602,159.159475 210.947368,159.5197 205.654135,159.639775 L200.902256,159.75985 L200.902256,151.924953 Z M208.75188,157.298311 C209.62406,157.118199 210.796992,156.697936 211.338346,156.337711 C214.105263,154.41651 214.37594,149.913696 211.879699,147.722326 C210.556391,146.551595 209.142857,146.19137 206.105263,146.19137 L203.609023,146.19137 L203.609023,151.894934 L203.609023,157.598499 L205.383459,157.598499 C206.345865,157.598499 207.849624,157.448405 208.75188,157.298311 Z" id="Shape"></path>
                <path d="M250.255639,159.339587 C250.255639,159.129456 251.789474,155.64728 253.62406,151.594747 L257.022556,144.24015 L258.345865,144.150094 L259.699248,144.060038 L263.157895,151.624765 C265.052632,155.767355 266.676692,159.309568 266.736842,159.459662 C266.766917,159.609756 266.195489,159.699812 265.383459,159.639775 L263.93985,159.549719 L263.18797,157.688555 L262.406015,155.797373 L258.43609,155.797373 L254.43609,155.797373 L253.56391,157.748593 C252.661654,159.669794 252.661654,159.699812 251.458647,159.699812 C250.646617,159.699812 250.225564,159.579737 250.255639,159.339587 Z M261.263158,153.335835 C260.81203,152.195122 258.556391,147.212008 258.466165,147.121951 C258.37594,147.001876 256.81203,150.243902 255.789474,152.73546 L255.368421,153.69606 L258.406015,153.69606 C260.691729,153.69606 261.383459,153.606004 261.263158,153.335835 Z" id="Shape"></path>
                <polygon id="Path" points="270.977444 152.945591 270.977444 146.19137 268.270677 146.19137 265.56391 146.19137 265.56391 145.140713 265.56391 144.090056 272.180451 144.090056 278.796992 144.090056 278.796992 145.140713 278.796992 146.19137 276.090226 146.19137 273.383459 146.19137 273.383459 152.945591 273.383459 159.699812 272.180451 159.699812 270.977444 159.699812"></polygon>
                <polygon id="Path" points="280.902256 151.894934 280.902256 144.090056 282.105263 144.090056 283.308271 144.090056 283.308271 151.894934 283.308271 159.699812 282.105263 159.699812 280.902256 159.699812"></polygon>
                <path d="M306.466165,151.894934 L306.466165,144.090056 L307.609023,144.090056 C308.691729,144.120075 308.842105,144.270169 313.082707,149.553471 L317.443609,154.986867 L317.533835,149.553471 L317.593985,144.090056 L318.796992,144.090056 L320,144.090056 L320,151.894934 L320,159.699812 L318.977444,159.699812 C317.984962,159.699812 317.684211,159.399625 313.473684,154.17636 L309.022556,148.622889 L308.932331,154.17636 L308.87218,159.699812 L307.669173,159.699812 L306.466165,159.699812 L306.466165,151.894934 Z" id="Path"></path>
                <path d="M92.3007519,141.56848 C83.2781955,139.677298 75.9398496,133.883677 71.6992481,125.32833 C69.4135338,120.705441 68.8421053,118.243902 68.6616541,112.690432 C68.5413534,109.148218 68.6015038,107.587242 69.0225564,105.636023 C70.2255639,99.7223265 72.3609023,95.3395872 76.4210526,90.6566604 L78.1353383,88.6454034 L74.7969925,89.6360225 C70.6766917,90.8067542 65.5037594,91.9774859 61.5037594,92.6078799 C57.3533835,93.2682927 47.5488722,93.5384615 43.6090226,93.0881801 C28.6315789,91.3771107 16.4210526,84.4427767 6.55639098,72.1050657 C4.60150376,69.673546 0,62.8592871 0,62.4390244 C0,62.2889306 1.11278195,62.7091932 2.4962406,63.3395872 C6.19548872,65.0806754 10.0451128,66.2814259 14.1954887,66.9718574 C17.443609,67.5422139 18.7067669,67.6022514 24.5112782,67.4521576 C31.9398496,67.272045 35.7293233,66.7617261 47.0676692,64.3902439 C64.8721805,60.6679174 73.4135338,59.4071295 86.9172932,58.5065666 C94.5864662,57.9962477 109.503759,58.326454 115.488722,59.1069418 C133.323308,61.478424 145.263158,66.2213884 153.112782,74.1163227 C158.586466,79.5797373 161.894737,85.8536585 163.609023,93.8986867 C164.421053,97.6810507 164.75188,106.056285 164.240602,110.469043 C163.548872,116.292683 161.684211,123.707317 159.819549,128.030019 C159.12782,129.560976 158.977444,128.9606 159.18797,125.628518 C159.398496,122.17636 158.887218,115.212008 158.195489,111.5197 C157.473684,107.857411 155.909774,103.204503 154.37594,100.142589 C150.917293,93.2682927 144.902256,87.6247655 138.045113,84.8630394 C128.300752,80.9005629 116.300752,81.9212008 108.120301,87.3846154 C100.721805,92.3377111 97.5037594,100.172608 99.5488722,108.247655 C100.571429,112.270169 101.984962,114.761726 104.932331,117.673546 C107.819549,120.555347 110.045113,121.816135 113.56391,122.65666 C117.172932,123.497186 121.052632,122.746717 124.210526,120.615385 C125.834586,119.534709 125.864662,119.50469 125.954887,120.195122 C126.105263,121.275797 125.233083,124.667917 124.240602,126.79925 C121.082707,133.733583 114.616541,138.896811 106.225564,141.148218 C103.24812,141.958724 95.3082707,142.168856 92.3007519,141.56848 Z" id="Path"></path>
                <path d="M197.864662,134.78424 C194.526316,134.393996 190.857143,133.403377 188.120301,132.082552 C184.210526,130.251407 184.360902,130.67167 186.165414,126.679174 C187.037594,124.787992 187.819549,123.106942 187.969925,122.986867 C188.090226,122.836773 188.87218,123.166979 189.714286,123.677298 C193.323308,125.868668 198.556391,127.159475 202.947368,126.919325 C207.308271,126.679174 209.443609,125.268293 209.443609,122.65666 C209.473684,120.555347 207.037594,119.084428 201.353383,117.82364 C197.684211,116.983114 192.992481,115.542214 191.488722,114.761726 C189.383459,113.711069 187.518797,111.849906 186.556391,109.898687 C185.804511,108.397749 185.714286,107.917448 185.714286,105.065666 C185.714286,102.093809 185.774436,101.763602 186.706767,99.902439 C188.390977,96.4803002 191.578947,94.1688555 196.390977,92.84803 C197.894737,92.4277674 199.458647,92.3076923 203.157895,92.3076923 C208.661654,92.3377111 211.639098,92.9080675 215.518797,94.6791745 L217.774436,95.7298311 L217.293233,96.8705441 C217.022556,97.5009381 216.300752,99.2120075 215.729323,100.652908 C215.097744,102.213884 214.526316,103.234522 214.315789,103.144465 C208.631579,100.682927 206.766917,100.172608 203.157895,100.172608 C199.669173,100.172608 198.075188,100.622889 196.631579,102.06379 C195.639098,103.02439 195.488722,103.384615 195.488722,104.555347 C195.488722,105.726079 195.639098,106.026266 196.511278,106.806754 C197.62406,107.767355 199.879699,108.60788 203.909774,109.538462 C211.007519,111.189493 213.894737,112.360225 216.300752,114.611632 C218.736842,116.893058 219.097744,117.82364 219.097744,121.876173 C219.097744,124.998124 219.007519,125.508443 218.285714,127.0394 C216.721805,130.371482 213.142857,133.013133 208.661654,134.153846 C205.984962,134.844278 200.962406,135.114447 197.864662,134.78424 Z" id="Path"></path>
                <path d="M298.646617,134.754221 C290.887218,133.82364 284.571429,129.470919 281.473684,122.926829 C278.496241,116.682927 278.796992,108.667917 282.195489,102.664165 C282.706767,101.763602 284.210526,99.9324578 285.533835,98.5816135 C289.593985,94.5590994 294.285714,92.5778612 300.631579,92.2476548 C307.909774,91.8574109 313.894737,93.7485929 318.135338,97.7410882 L319.849624,99.3621013 L316.842105,102.183865 C315.18797,103.744841 313.744361,105.035647 313.62406,105.065666 C313.503759,105.065666 312.541353,104.405253 311.458647,103.594747 C309.082707,101.793621 306.676692,100.863039 303.849624,100.652908 C299.669173,100.322702 295.578947,101.733583 292.962406,104.435272 C288.120301,109.388368 288.270677,118.243902 293.233083,122.896811 C296.992481,126.409006 302.977444,127.459662 308.180451,125.538462 L309.62406,124.998124 L309.714286,118.934334 L309.774436,112.870544 L314.43609,112.870544 L319.097744,112.870544 L319.097744,121.275797 L319.097744,129.711069 L317.233083,130.881801 C312.451128,133.913696 304.781955,135.50469 298.646617,134.754221 Z" id="Path"></path>
                <path d="M225.56391,113.470919 L225.56391,92.7579737 L229.714286,92.7579737 L233.834586,92.7579737 L241.142857,104.915572 C245.172932,111.579737 248.631579,117.253283 248.842105,117.523452 C249.172932,117.973734 250.255639,116.292683 256.721805,105.395872 L264.210526,92.7879925 L268.360902,92.7579737 L272.481203,92.7579737 L272.481203,113.470919 L272.481203,134.183865 L267.819549,134.183865 L263.157895,134.183865 L263.097744,122.266417 L263.007519,110.318949 L257.142857,120.165103 L251.278195,129.981238 L248.992481,129.981238 L246.706767,129.981238 L240.87218,120.405253 L235.037594,110.79925 L234.947368,122.506567 L234.887218,134.183865 L230.225564,134.183865 L225.56391,134.183865 L225.56391,113.470919 Z" id="Path"></path>
                <path d="M167.338346,106.776735 C167.729323,104.255159 167.578947,96.8705441 167.097744,93.9287054 C165.263158,82.7917448 159.93985,73.0356473 150.947368,64.3902439 C147.278195,60.84803 144.721805,58.836773 140.120301,55.7748593 C126.165414,46.4990619 108.270677,40.3452158 87.9699248,37.8236398 C78.2255639,36.6228893 73.5338346,35.4821764 68,32.8405253 C63.8195489,30.8592871 60.3609023,28.4577861 57.112782,25.2457786 C51.8796992,20.0225141 48.7819549,14.2288931 46.9473684,6.30393996 C46.2857143,3.4521576 45.8345865,0 46.1353383,0 C46.2255639,0 47.3684211,1.0206379 48.6616541,2.28142589 C56.9022556,10.3864916 66.4661654,15.5497186 78.887218,18.5816135 C83.8195489,19.8123827 90.2857143,20.8330206 98.7368421,21.7636023 C102.556391,22.1838649 107.518797,22.7242026 109.744361,22.9643527 C121.233083,24.2251407 133.293233,28.5778612 144.330827,35.4221388 C150.887218,39.4746717 157.473684,44.9380863 161.383459,49.5609756 C163.548872,52.0825516 166.766917,56.435272 166.977444,57.065666 C167.067669,57.3058161 167.578947,57.1257036 168.421053,56.5853659 C170.736842,55.1444653 174.315789,54.0037523 177.263158,53.793621 L179.969925,53.5834897 L178.766917,52.6829268 C178.135338,52.2026266 176.932331,51.5722326 176.090226,51.272045 L174.586466,50.7617261 L175.488722,50.4315197 C178.977444,49.0806754 186.496241,48.6904315 191.308271,49.6210131 C198.526316,51.0318949 204.360902,54.3639775 206.646617,58.3864916 C207.12782,59.2570356 208.030075,60.3076923 208.661654,60.727955 C210.075188,61.6585366 211.849624,64.1801126 212.631579,66.4015009 C213.383459,68.5028143 213.714286,71.2045028 213.323308,71.8949343 C213.052632,72.3752345 212.962406,72.315197 212.451128,71.4746717 C211.789474,70.3639775 210.285714,69.2532833 208.421053,68.532833 C207.368421,68.1425891 206.135338,68.0225141 203.007519,68.0225141 C199.18797,67.9924953 198.766917,68.0525328 196.090226,68.9831144 C182.616541,73.6060038 171.548872,88.0150094 168,105.485929 C167.458647,108.157598 167.037594,108.998124 167.338346,106.776735 Z" id="Path"></path>
                <path d="M136.090226,60.1275797 C130.887218,58.0863039 121.714286,56.1050657 113.082707,55.1144465 C98.887218,53.4934334 80.0601504,53.793621 64.2105263,55.8949343 C58.556391,56.6454034 49.112782,56.7954972 45.2631579,56.1651032 C30.556391,53.8536585 19.7894737,46.4090056 14.1353383,34.6716698 C12.0300752,30.2589118 10.2255639,23.2045028 10.2255639,19.272045 L10.2255639,17.6210131 L12.6315789,19.902439 C22.6165414,29.4484053 37.443609,36.0225141 55.8796992,39.1444653 C60.4511278,39.9249531 65.2030075,40.435272 74.887218,41.3058161 C81.6842105,41.8761726 90.3759398,43.1369606 97.593985,44.5478424 C115.548872,48.0900563 129.533835,53.2532833 137.654135,59.3771107 C140.571429,61.5684803 140.240602,61.7185741 136.090226,60.1275797 Z" id="Path"></path>
                <path d="M245.473684,27.5572233 C244.932331,27.0168856 245.052632,26.1763602 245.684211,25.8161351 C246.556391,25.3658537 247.218045,25.7560976 247.218045,26.7166979 C247.218045,27.7973734 246.195489,28.2776735 245.473684,27.5572233 Z" id="Path"></path>
                <path d="M263.759398,27.2570356 C261.864662,26.2964353 261.052632,24.945591 261.052632,22.8142589 C261.052632,19.9324578 262.796992,18.011257 265.684211,17.7711069 C269.56391,17.4709193 272.180451,20.4727955 271.24812,24.1651032 C270.706767,26.2964353 268.481203,27.9174484 266.045113,27.9174484 C265.503759,27.9174484 264.481203,27.6172608 263.759398,27.2570356 Z M267.518797,25.9962477 C268.090226,25.7560976 268.842105,25.0956848 269.172932,24.5553471 C270.977444,21.7035647 267.819549,18.1613508 264.781955,19.6322702 C263.609023,20.1726079 262.556391,21.7035647 262.556391,22.8142589 C262.556391,23.9249531 263.639098,25.4859287 264.75188,25.9662289 C265.984962,26.5065666 266.255639,26.5065666 267.518797,25.9962477 Z" id="Shape"></path>
                <path d="M275.578947,27.587242 C275.067669,27.4371482 274.315789,26.8667917 273.924812,26.326454 C273.293233,25.4559099 273.233083,24.945591 273.112782,21.5534709 L273.022556,17.7110694 L273.954887,17.7110694 L274.887218,17.7110694 L274.887218,21.0131332 C274.887218,22.8142589 275.037594,24.6153846 275.218045,25.0356473 C275.909774,26.5065666 278.135338,26.7467167 279.308271,25.4559099 C279.759398,24.9756098 279.879699,24.2251407 279.93985,21.2833021 C280.06015,17.7410882 280.06015,17.7110694 280.781955,17.7110694 L281.503759,17.7110694 L281.503759,21.4033771 C281.503759,25.3358349 281.293233,26.1163227 279.969925,27.1069418 C279.037594,27.7673546 276.962406,28.0075047 275.578947,27.587242 Z" id="Path"></path>
                <path d="M290.406015,27.6172608 C288.270677,26.956848 286.646617,24.2251407 287.067669,21.9437148 C287.699248,18.5816135 291.488722,16.7204503 294.646617,18.2213884 C295.879699,18.7917448 296.180451,19.3921201 295.578947,19.9924953 C295.218045,20.3827392 295.007519,20.3527205 293.954887,19.782364 C292.421053,18.9418386 290.977444,19.15197 289.744361,20.4427767 C289.022556,21.1932458 288.87218,21.6135084 288.87218,22.8142589 C288.87218,24.5553471 289.714286,25.6360225 291.458647,26.1763602 C292.421053,26.4465291 292.781955,26.4165103 293.864662,25.8761726 C294.827068,25.3958724 295.24812,25.3058161 295.548872,25.575985 C296.240602,26.1463415 295.969925,26.7467167 294.676692,27.3170732 C293.293233,27.9474672 291.849624,28.0375235 290.406015,27.6172608 Z" id="Path"></path>
                <path d="M318.195489,27.467167 C317.413534,26.5365854 318.586466,25.0056285 319.518797,25.7861163 C320.150376,26.2964353 320.150376,27.4971857 319.518797,27.7373358 C318.827068,28.0075047 318.616541,27.9774859 318.195489,27.467167 Z" id="Path"></path>
                <path d="M186.165414,22.6341463 L186.165414,17.6210131 L189.293233,17.7711069 C192.962406,17.9212008 193.834586,18.3414634 194.165414,19.9624765 C194.285714,20.7129456 194.195489,21.2232645 193.864662,21.7636023 C193.413534,22.4540338 193.413534,22.5440901 193.984962,23.1144465 C194.917293,24.0450281 194.827068,26.1763602 193.804511,26.9868668 C193.112782,27.5272045 192.571429,27.6172608 189.593985,27.6172608 L186.165414,27.6172608 L186.165414,22.6341463 Z M191.969925,26.1463415 C193.082707,25.7260788 193.323308,24.6454034 192.481203,23.9549719 C191.969925,23.564728 191.308271,23.4146341 189.744361,23.4146341 L187.669173,23.4146341 L187.669173,24.9155722 L187.669173,26.4165103 L189.443609,26.4165103 C190.43609,26.4165103 191.578947,26.2964353 191.969925,26.1463415 Z M191.909774,21.6135084 C192.210526,21.4333959 192.481203,21.043152 192.481203,20.7129456 C192.481203,19.782364 191.308271,19.2120075 189.413534,19.2120075 L187.669173,19.2120075 L187.669173,20.5628518 L187.669173,21.9136961 L189.503759,21.9136961 C190.496241,21.9136961 191.578947,21.7636023 191.909774,21.6135084 Z" id="Shape"></path>
                <path d="M196.691729,22.6641651 L196.691729,17.7110694 L200.150376,17.7110694 L203.609023,17.7110694 L203.609023,18.4615385 C203.609023,19.2120075 203.578947,19.2120075 200.902256,19.2120075 L198.195489,19.2120075 L198.195489,20.5628518 L198.195489,21.9136961 L200.601504,21.9136961 C202.977444,21.9136961 203.007519,21.9136961 203.007519,22.6641651 C203.007519,23.4146341 202.977444,23.4146341 200.601504,23.4146341 L198.195489,23.4146341 L198.195489,24.7654784 L198.195489,26.1163227 L201.052632,26.1163227 C203.909774,26.1163227 203.909774,26.1163227 203.909774,26.8667917 L203.909774,27.6172608 L200.300752,27.6172608 L196.691729,27.6172608 L196.691729,22.6641651 Z" id="Path"></path>
                <path d="M205.714286,22.6641651 L205.714286,17.7110694 L206.616541,17.7110694 L207.518797,17.7110694 L207.518797,21.9136961 L207.518797,26.1163227 L210.075188,26.1163227 C212.601504,26.1163227 212.631579,26.1163227 212.631579,26.8667917 L212.631579,27.6172608 L209.172932,27.6172608 L205.714286,27.6172608 L205.714286,22.6641651 Z" id="Path"></path>
                <polygon id="Path" points="213.834586 22.6641651 213.834586 17.7110694 214.736842 17.7110694 215.639098 17.7110694 215.639098 22.6641651 215.639098 27.6172608 214.736842 27.6172608 213.834586 27.6172608"></polygon>
                <path d="M218.045113,22.6641651 L218.045113,17.7110694 L221.654135,17.7110694 L225.263158,17.7110694 L225.263158,18.4615385 C225.263158,19.2120075 225.233083,19.2120075 222.556391,19.2120075 L219.849624,19.2120075 L219.849624,20.5628518 L219.849624,21.9136961 L222.255639,21.9136961 C224.631579,21.9136961 224.661654,21.9136961 224.661654,22.6641651 C224.661654,23.4146341 224.631579,23.4146341 222.255639,23.4146341 L219.849624,23.4146341 L219.849624,24.7654784 L219.849624,26.1163227 L222.706767,26.1163227 C225.56391,26.1163227 225.56391,26.1163227 225.56391,26.8667917 L225.56391,27.6172608 L221.804511,27.6172608 L218.045113,27.6172608 L218.045113,22.6641651 Z" id="Path"></path>
                <path d="M227.909774,22.9643527 C226.766917,20.412758 225.864662,18.1913696 225.864662,18.011257 C225.864662,17.8611632 226.225564,17.7110694 226.706767,17.7110694 C227.488722,17.7110694 227.639098,17.9512195 229.142857,21.4634146 C230.045113,23.5347092 230.857143,25.1557223 230.947368,25.065666 C231.037594,24.9756098 231.789474,23.3245779 232.631579,21.3733583 C234.015038,18.2514071 234.255639,17.8611632 234.977444,17.7711069 C235.428571,17.7110694 235.789474,17.8311445 235.789474,18.011257 C235.789474,18.1913696 234.887218,20.4427767 233.774436,22.9943715 C231.789474,27.4971857 231.729323,27.6172608 230.827068,27.6172608 C229.954887,27.6172608 229.864662,27.4971857 227.909774,22.9643527 Z" id="Path"></path>
                <path d="M236.691729,22.6641651 L236.691729,17.7110694 L240.300752,17.7110694 L243.909774,17.7110694 L243.909774,18.4615385 C243.909774,19.2120075 243.879699,19.2120075 241.203008,19.2120075 L238.496241,19.2120075 L238.496241,20.5628518 L238.496241,21.9136961 L240.902256,21.9136961 C243.278195,21.9136961 243.308271,21.9136961 243.308271,22.6641651 C243.308271,23.4146341 243.278195,23.4146341 240.902256,23.4146341 L238.496241,23.4146341 L238.496241,24.7654784 L238.496241,26.1163227 L241.353383,26.1163227 C244.210526,26.1163227 244.210526,26.1163227 244.210526,26.8667917 L244.210526,27.6172608 L240.451128,27.6172608 L236.691729,27.6172608 L236.691729,22.6641651 Z" id="Path"></path>
                <path d="M255.037594,25.9362101 C255.037594,24.4052533 254.857143,23.9549719 253.233083,21.2532833 C252.240602,19.6322702 251.428571,18.1613508 251.428571,18.011257 C251.428571,17.8311445 251.789474,17.7110694 252.270677,17.7110694 C252.962406,17.7110694 253.263158,18.0412758 254.37594,19.9624765 C255.097744,21.1932458 255.789474,22.2739212 255.909774,22.3339587 C256.030075,22.424015 256.781955,21.4033771 257.593985,20.1125704 C258.857143,18.011257 259.12782,17.7110694 259.879699,17.7110694 C260.360902,17.7110694 260.75188,17.7711069 260.75188,17.8311445 C260.75188,17.891182 259.879699,19.3621013 258.796992,21.1332083 C257.022556,24.0450281 256.842105,24.4652908 256.842105,25.9662289 C256.842105,27.587242 256.842105,27.6172608 255.93985,27.6172608 C255.037594,27.6172608 255.037594,27.6172608 255.037594,25.9362101 Z" id="Path"></path>
                <path d="M296.691729,26.0562852 C300.360902,17.8311445 300.330827,17.8611624 301.233083,17.8611624 C302.015038,17.8611624 302.165414,18.1313321 304.06015,22.2138837 C306.736842,28.097561 306.616541,27.6172608 305.533835,27.6172608 C304.75188,27.6172608 304.541353,27.4371482 304.120301,26.4165103 L303.609023,25.2157598 L301.293233,25.2157598 L298.947368,25.2157598 L298.345865,26.4165103 C297.834586,27.4071295 297.56391,27.6172608 296.842105,27.6172608 L295.969925,27.6172608 L296.691729,26.0562852 Z M302.857143,23.804878 C302.857143,23.6547842 302.496241,22.7242026 302.045113,21.7035647 L301.233083,19.8724203 L300.571429,21.2833021 C299.308271,24.0750469 299.278195,24.0150094 301.172932,24.0150094 C302.105263,24.0150094 302.857143,23.9249531 302.857143,23.804878 Z" id="Shape"></path>
                <path d="M307.669173,22.6641651 C307.669173,16.3602251 307.729323,16.3302064 311.639098,21.1332083 L314.43609,24.5853659 L314.526316,21.1332083 C314.616541,17.7110694 314.616541,17.7110694 315.338346,17.7110694 L316.090226,17.7110694 L316.090226,22.6641651 L316.090226,27.6172608 L315.338346,27.6172608 C314.766917,27.6172608 314.045113,26.9268293 311.969925,24.315197 L309.323308,21.043152 L309.233083,24.315197 C309.142857,27.587242 309.142857,27.6172608 308.421053,27.6172608 L307.669173,27.6172608 L307.669173,22.6641651 Z" id="Path"></path>
            </g>
        </g>
    </g>
</svg>